<?xml version="1.0" encoding="UTF-8"?>
<svg width="48px" height="48px" viewBox="0 0 48 48" version="1.1" xmlns="http://www.w3.org/2000/svg" xmlns:xlink="http://www.w3.org/1999/xlink">
    <title>Group 4</title>
    <g id="Page-1" stroke="none" stroke-width="1" fill="none" fill-rule="evenodd">
        <g id="Group-4">
            <polygon id="Path" points="0 0 48 0 48 48 0 48"></polygon>
            <g id="Group-3" transform="translate(4.000000, 4.000000)" fill="#5C5C5C">
                <path d="M40.028183,19 C40.028183,13.4771525 35.9987457,9 31.028183,9 C26.0576202,9 22.028183,13.4771525 22.028183,19 L40.028183,19 Z" id="Oval"></path>
                <path d="M23.028183,14 C23.028183,8.4771525 18.9987457,4 14.028183,4 C9.05762024,4 5.02818298,8.4771525 5.02818298,14 L23.028183,14 Z" id="Oval" transform="translate(14.028183, 9.000000) rotate(-90.000000) translate(-14.028183, -9.000000) "></path>
                <path d="M35,36.1061935 C35,30.583346 30.9705627,26.1061935 26,26.1061935 C21.0294373,26.1061935 17,30.583346 17,36.1061935 L35,36.1061935 Z" id="Oval" transform="translate(26.000000, 31.106194) rotate(-270.000000) translate(-26.000000, -31.106194) "></path>
                <path d="M18,31.1061935 C18,25.583346 13.9705627,21.1061935 9,21.1061935 C4.02943725,21.1061935 0,25.583346 0,31.1061935 L18,31.1061935 Z" id="Oval" transform="translate(9.000000, 26.106194) rotate(-180.000000) translate(-9.000000, -26.106194) "></path>
            </g>
        </g>
    </g>
</svg>