<svg width="50px" height="50px" viewBox="0 0 50 50" version="1.1" xmlns="http://www.w3.org/2000/svg" xmlns:xlink="http://www.w3.org/1999/xlink">
    <g stroke="none" stroke-width="1" fill="none" fill-rule="evenodd">
        <g>
            <polygon points="0 0 50 0 50 50 0 50"></polygon>
            <path d="M9.03955,14.27698 L9.03954,14.27698 L6.64697,15.73253 L13.5237,29.8044 L14.4144,29.8044 C14.4144,28.858 14.4144,28.3848 14.4144,28.3848 C14.4243,27.7036 14.6103,27.0129 14.8109,26.468 C14.8885,26.2585 14.9729,26.0502 15.0555,25.8462 C15.0555,25.8462 15.0555333,25.8462 15.0556,25.8462 L15.0556,25.8462 L15.0556,25.8462 L15.0556,25.8461 C15.0556,25.8461 15.0556,25.8461 15.0556,25.8461 C15.1522,25.6078 15.2463,25.3753 15.3244,25.1538 C15.3244,25.1538 14.7486567,25.1538 13.59717,25.1538 L16.4346,19.3475 L19.2721,25.1538 C18.0323667,25.1538 17.4125,25.1538 17.4125,25.1538 C17.3246,25.6624 17.1286,26.1385 16.9332,26.6135 C16.8531,26.808 16.7731,27.0023 16.7006,27.1986 C16.5268,27.6672 16.4247,27.9943 16.4346,28.3835 C16.4346,28.3835 16.4346,28.8571333 16.4346,29.8044 L22.4945,29.8044 C22.4945,28.8721333 22.4945,28.406 22.4945,28.406 C22.5044,27.7248 22.6904,27.0341 22.891,26.4892 C22.9686,26.2796 23.053,26.0713 23.1357,25.8673 C23.2323,25.6289 23.3264,25.3965 23.4045,25.175 C23.4045,25.175 22.8287333,25.175 21.6772,25.175 L24.5147,19.3687 L27.3522,25.175 C26.1124667,25.175 25.4926,25.175 25.4926,25.175 C25.4047,25.6836 25.2087,26.1597 25.0132,26.6346 C25.0132,26.6346 25.0132,26.6347 25.0132,26.6347 C24.9332,26.8292 24.8532,27.0235 24.7807,27.2198 C24.6069,27.6884 24.5048,28.0155 24.5147,28.4047 C24.5147,28.4047 24.5147,28.8712667 24.5147,29.8044 L30.0701,29.8044 C30.0701,28.858 30.0701,28.3848 30.0701,28.3848 C30.0801,27.7036 30.2661,27.0129 30.4667,26.468 C30.5443,26.2584 30.6287,26.0501 30.7114,25.8461 C30.8079,25.6078 30.9021,25.3753 30.9802,25.1538 C30.9802,25.1538 30.4044333,25.1538 29.2529,25.1538 L32.0904,19.3475 L34.9278,25.1538 C33.6881333,25.1538 33.0683,25.1538 33.0683,25.1538 C32.9804,25.6624 32.7844,26.1385 32.5889,26.6134 C32.5889,26.6134 32.5889,26.6135 32.5889,26.6135 C32.5089,26.808 32.4289,27.0023 32.3564,27.1986 C32.1826,27.6672 32.0804,27.9943 32.0904,28.3835 C32.0904,28.3835 32.0904,28.8571333 32.0904,29.8044 L34.9839,29.8044 L41.3962,15.74567 L38.982,14.27699 L39.4982,13.38865 L40.0145,12.50031 L43.2143,14.44694 L44,14.92489 L43.6134,15.77234 L36.5425,31.275 L36.2705,31.8715 L35.6272,31.8715 C34.6614667,31.8715 34.1786,31.8715 34.1786,31.8715 C34.4237,32.6037 34.6166,33.4966 34.6166,34.4555 C34.6153,35.5405 34.4696,36.9891 34.0647,38.3194 C33.6486,39.6675 32.9245,41.0507 31.6872,42 C31.6872,42 30.4751,40.3465 30.4751,40.3465 C31.2581,39.7457 31.7967,38.8035 32.1382,37.697 C32.4908,36.5728 32.5976,35.4376 32.5964,34.4555 C32.5964,33.4132 32.2729,32.4552 32.0024,31.8715 C32.0024,31.8715 26.098,31.8715 26.098,31.8715 C26.3431,32.6037 26.536,33.4966 26.536,34.4555 C26.5348,35.5405 26.3891,36.9891 25.9841,38.3194 C25.568,39.6675 24.844,41.0507 23.6067,42 C23.6067,42 22.3945,40.3465 22.3945,40.3465 C23.1775,39.7457 23.7161,38.8035 24.0576,37.697 C24.4102,36.5728 24.517,35.4376 24.5158,34.4555 C24.5158,33.4132 24.1923,32.4552 23.9218,31.8715 C23.9218,31.8715 17.5116,31.8715 17.5116,31.8715 C17.7567,32.6037 17.9496,33.4966 17.9496,34.4555 C17.9484,35.5405 17.8027,36.9891 17.3977,38.3194 C16.9816,39.6675 16.2575,41.0507 15.0203,42 C15.0203,42 13.80811,40.3465 13.80811,40.3465 C14.5911,39.7457 15.1297,38.8035 15.4712,37.697 C15.8238,36.5728 15.9306,35.4376 15.9294,34.4555 C15.9294,33.4132 15.6059,32.4552 15.3354,31.8715 C15.3354,31.8715 14.5234033,31.8715 12.89941,31.8715 L12.27512,31.8715 L11.99593,31.3001 L4.42,15.79748 L4,14.93803 L4.80723,14.44694 L7.83517,12.60487 C7.94975,12.5351633 8.00704,12.50031 8.00704,12.50031 C17.8703,6.4999 30.1513,6.4999 40.0145,12.5003 C40.0145,12.5003 39.8424,12.7964167 39.4982,13.38865 C39.1540667,13.98087 38.982,14.27698 38.982,14.27698 C29.7551,8.6637 18.2664,8.6637 9.03955,14.27698 C9.03955,14.27698 9.03955,14.27698 9.03955,14.27698 Z" fill="#545454"></path>
        </g>
    </g>
</svg>
