<?xml version="1.0" encoding="UTF-8"?>
<svg width="48px" height="48px" viewBox="0 0 48 48" version="1.1" xmlns="http://www.w3.org/2000/svg" xmlns:xlink="http://www.w3.org/1999/xlink">
    <title>battery</title>
    <defs>
        <path d="M37.1129032,10.5 L37.1129032,4.9 C37.5322581,4.9 37.7419355,4.9 37.7419355,4.9 C38.4367016,4.9 39,5.526857 39,6.3 C39,6.3 39,9.1 39,9.1 C39,9.87315 38.4367016,10.5 37.7419355,10.5 L37.1129032,10.5 Z M1.25806452,0 C0.563304677,0 0,0.626857 0,1.4 C0,1.4 0,12.6 0,12.6 C0,13.37315 0.563304677,14 1.25806452,14 C1.25806452,14 35.2258065,14 35.2258065,14 C35.9205726,14 36.483871,13.37315 36.483871,12.6 C36.483871,12.6 36.483871,1.4 36.483871,1.4 C36.483871,0.626857 35.9205726,0 35.2258065,0 C35.2258065,0 1.25806452,0 1.25806452,0 Z" id="path-1"></path>
    </defs>
    <g id="Page-1" stroke="none" stroke-width="1" fill="none" fill-rule="evenodd">
        <g id="battery">
            <polygon id="Path" points="0 0 48 0 48 48 0 48"></polygon>
            <polygon id="Background" points="5 16 47 16 47 29 5 29"></polygon>
            <g transform="translate(5.000000, 16.000000)">
                <mask id="mask-2" fill="white">
                    <use xlink:href="#path-1"></use>
                </mask>
                <g id="Mask"></g>
                <path d="M37.1129032,10.5 L37.1129032,4.9 C37.5322581,4.9 37.7419355,4.9 37.7419355,4.9 C38.4367016,4.9 39,5.526857 39,6.3 C39,6.3 39,9.1 39,9.1 C39,9.87315 38.4367016,10.5 37.7419355,10.5 L37.1129032,10.5 Z M1.25806452,0 C0.563304677,0 0,0.626857 0,1.4 C0,1.4 0,12.6 0,12.6 C0,13.37315 0.563304677,14 1.25806452,14 C1.25806452,14 35.2258065,14 35.2258065,14 C35.9205726,14 36.483871,13.37315 36.483871,12.6 C36.483871,12.6 36.483871,1.4 36.483871,1.4 C36.483871,0.626857 35.9205726,0 35.2258065,0 C35.2258065,0 1.25806452,0 1.25806452,0 Z" mask="url(#mask-2)"></path>
                <path d="M35.030303,-1 C36.4026227,-1 37.5151515,0.2685825 37.5151515,1.83333333 L37.5151515,1.83333333 L37.5151515,3.95833333 C38.8874712,3.95833333 40,5.22691583 40,6.79166667 L40,6.79166667 L40,9.625 L38.136,9.624 L38.136,9.625 L40,9.625 C40,11.1295954 38.9714046,12.360314 37.6722947,12.452759 L37.5151515,12.4583333 L37.5151515,12.4583333 L37.5151515,13.1666667 L37.5102628,13.3458482 C37.4291881,14.8271504 36.3498412,16 35.030303,16 L35.030303,16 L1.48484848,16 L1.32770799,15.9944256 C0.0286183768,15.9019807 -1,14.671262 -1,13.1666667 L-1,13.1666667 L-1,1.83333333 L-0.995111153,1.65415484 C-0.914034718,0.172875832 0.165334207,-1 1.48484848,-1 L1.48484848,-1 Z M35.030303,1.83333333 L1.48484848,1.83333333 L1.48484848,13.1666667 L35.030303,13.1666667 L35.030303,1.83333333 Z" id="battery-border" fill="#696A65" mask="url(#mask-2)"></path>
            </g>
            <rect id="Rectangle" fill="#696A65" x="6" y="17" width="34" height="13"></rect>
            <polygon id="level" fill="#25CB55" points="6.2 17.2 23.2 17.2 23.2 29.2 6.2 29.2"></polygon>
        </g>
    </g>
</svg>