<svg width="48px" height="48px" viewBox="0 0 48 48" version="1.1" xmlns="http://www.w3.org/2000/svg" xmlns:xlink="http://www.w3.org/1999/xlink">
    <g stroke="none" stroke-width="1" fill="none" fill-rule="evenodd">
        <g transform="translate(-160.000000, -1115.000000)">
            <g transform="translate(0.000000, 1072.000000)">
                <g transform="translate(160.000000, 43.000000)">
                    <polygon points="0 0 48 0 48 48 0 48"></polygon>
                    <path d="M12.707,34.293 C12.8945,34.1055 13.1489,34 13.4141,34 C13.4141,34 34.5859,34 34.5859,34 C34.8511,34 35.1055,34.1055 35.293,34.293 C35.293,34.293 36.1465,35.1465 36.1465,35.1465 C36.4614,35.4614 36.2383,36 35.793,36 C35.793,36 12.207,36 12.207,36 C11.7617,36 11.5386,35.4614 11.8535,35.1465 C11.8535,35.1465 12.707,34.293 12.707,34.293 Z M37.7803,32 C40.3809,31.5249 41.7217,31.1194 43.7803,30 C43.7803,30 43.9697,30.7576 43.9697,30.7576 C44.1274,31.3887 43.6499,32 42.9995,32 C42.9995,32 37.7803,32 37.7803,32 Z M10,32 C7.39941,31.5249 6.05859,31.1194 4,30 C4,30 3.81055,30.7576 3.81055,30.7576 C3.65283,31.3887 4.13037,32 4.78076,32 C4.78076,32 10,32 10,32 Z M40.9966,20.3215 C39.3271,21.9597 37.9248,23.2239 35.3301,24.3003 C35.0757,24.4058 34.9756,24.7173 35.1284,24.9463 C35.5615,25.5962 36.3135,25.9595 37.0918,25.8945 C37.0918,25.8945 39.8408,25.6655 39.8408,25.6655 C41.1255,25.5583 42.3306,24.9995 43.2422,24.0879 C43.8701,23.46 43.9521,22.47 43.436,21.7473 C43.436,21.7473 42.5107,20.4521 42.5107,20.4521 C42.1533,19.9521 41.4351,19.8911 40.9966,20.3215 Z M6.83398,20.3215 C8.50342,21.96 9.90527,23.2239 12.5005,24.3005 C12.7544,24.406 12.855,24.7175 12.7021,24.9465 C12.269,25.5964 11.5166,25.9595 10.73828,25.8945 C10.73828,25.8945 7.98975,25.6655 7.98975,25.6655 C6.70508,25.5586 5.5,24.9995 4.58838,24.0881 C3.96045,23.46 3.87842,22.47 4.39453,21.7473 C4.39453,21.7473 5.31982,20.4521 5.31982,20.4521 C5.67676,19.9521 6.39551,19.8911 6.83398,20.3215 Z M8.71729,12.27588 C7.64957667,15.83496 7.11572,17.6145 7.11572,17.6145 C7.05957,17.8022 7.14258,17.9995 7.30664,18.0935 C7.33008,18.1069 7.35547,18.1184 7.38184,18.1272 C9.11621,18.7053 10.93213,19 12.7598,19 C12.7598,19 35.3384,19 35.3384,19 C37.166,19 38.9819,18.7053 40.7163,18.1272 C40.9292,18.0564 41.0469,17.8293 40.9824,17.6145 C40.9824,17.6145 39.3809,12.27588 39.3809,12.27588 C38.6196,9.73804 36.2837,8 33.6338,8 C33.6338,8 14.4644,8 14.4644,8 C11.8145,8 9.47852,9.73804 8.71729,12.27588 C8.71729,12.27588 8.71729,12.27588 8.71729,12.27588 Z M43,41 C42.3333333,41 42,41 42,41 C40.3433,41 39,39.6567 39,38 C39,38 12,38 12,38 C11.4844,38 8.76709,39.7761 7.8584,40.3701 C7.8584,40.3701 7.62109,40.5247 7.62109,40.5247 C7.15381,40.8254 6.59717,41 6,41 C6,41 5,41 5,41 C3.34326,41 2,39.6567 2,38 C2,38 2,24.4854 2,24.4854 C2,22.894 2.63232,21.3679 3.75732,20.2427 C3.75732,20.2427 4.17154667,19.8284667 5,19 C3.64876,19 2.97314,19 2.97314,19 C1.8833,19 1,18.1167 1,17.0271 C1,16.42334 1.41064,15.89722 1.99609,15.75098 C1.99609,15.75098 3.75732,15.31055 3.75732,15.31055 C4.38867,15.15283 5,15.63013 5,16.28076 C5,16.28076 5,16.85384 5,18 L6,18 C7.19628667,13.61426 7.79443,11.42139 7.79443,11.42139 C8.50635,8.81104 10.87695,7 13.583,7 C13.583,7 34.417,7 34.417,7 C37.123,7 39.4937,8.81104 40.2056,11.42139 C40.2056,11.42139 40.8037333,13.61426 42,18 L43,18 C43,16.85384 43,16.28076 43,16.28076 C43,15.63013 43.6113,15.15283 44.2427,15.31055 C44.2427,15.31055 46.0039,15.75098 46.0039,15.75098 C46.5894,15.89722 47,16.42334 47,17.0271 C47,18.1167 46.1167,19 45.0269,19 C45.0269,19 44.3512667,19 43,19 C43.8284667,19.8284667 44.2427,20.2427 44.2427,20.2427 C45.3677,21.3679 46,22.894 46,24.4854 C46,24.4854 46,38 46,38 C46,39.6567 44.6567,41 43,41 C43,41 43,41 43,41 Z" fill="#545454"></path>
                </g>
            </g>
        </g>
    </g>
</svg>
