<svg width="48px" height="48px" viewBox="0 0 48 48" version="1.1" xmlns="http://www.w3.org/2000/svg" xmlns:xlink="http://www.w3.org/1999/xlink">
    <g stroke="none" stroke-width="1" fill="none" fill-rule="evenodd">
        <g>
            <polygon points="0 0 48 0 48 48 0 48"></polygon>
            <path d="M6,10 C6,8.89551 6.89551,8 8,8 C8,8 40,8 40,8 C41.1045,8 42,8.89551 42,10 C42,10 42,28.0703 42,28.0703 C42,29.1748 41.1045,30.0703 40,30.0703 C40,30.0703 34.8428,30.0703 34.8428,30.0703 C35.1016,30.7988 35.3096,31.7021 35.3096,32.6758 C35.3086,33.7295 35.1641,35.1357 34.7637,36.4268 C34.3516,37.7354 33.6348,39.0781 32.4102,40 C32.4102,40 31.21,38.3945 31.21,38.3945 C31.9854,37.8115 32.5186,36.8965 32.8564,35.8223 C33.2051,34.7314 33.3115,33.6289 33.3096,32.6758 C33.3096,31.6035 32.9502,30.623 32.6748,30.0703 C32.6748,30.0703 26.8428,30.0703 26.8428,30.0703 C27.1016,30.7988 27.3096,31.7021 27.3096,32.6758 C27.3086,33.7295 27.1641,35.1357 26.7637,36.4268 C26.3516,37.7354 25.6348,39.0781 24.4102,40 C24.4102,40 23.21,38.3945 23.21,38.3945 C23.9854,37.8115 24.5186,36.8965 24.8564,35.8223 C25.2051,34.7314 25.3115,33.6289 25.3096,32.6758 C25.3096,31.6035 24.9502,30.623 24.6748,30.0703 C24.6748,30.0703 18.3428,30.0703 18.3428,30.0703 C18.6016,30.7988 18.8096,31.7021 18.8096,32.6758 C18.8086,33.7295 18.6641,35.1357 18.2637,36.4268 C17.8516,37.7354 17.1348,39.0781 15.91016,40 C15.91016,40 14.70996,38.3945 14.70996,38.3945 C15.48535,37.8115 16.0186,36.8965 16.3564,35.8223 C16.7051,34.7314 16.8115,33.6289 16.8096,32.6758 C16.8096,31.6035 16.4502,30.623 16.1748,30.0703 C16.1748,30.0703 8,30.0703 8,30.0703 C6.89551,30.0703 6,29.1748 6,28.0703 C6,28.0703 6,10 6,10 Z M8,10 L40,10 L40,28.0703 L32.3086,28.0703 C32.3086,26.5429667 32.3086,25.7793 32.3086,25.7793 C32.2988,25.4014 32.4004,25.084 32.5723,24.6289 C32.6445,24.4385 32.7236,24.249 32.8027,24.0605 C32.8027,24.0605 32.8057,24.0537 32.8057,24.0537 C32.998,23.5957 33.1904,23.1357 33.2773,22.6436 C33.2773,22.6436 33.8909333,22.6436 35.1182,22.6436 L32.3086,17.00781 L29.5,22.6436 C30.64,22.6436 31.21,22.6436 31.21,22.6436 C31.1318,22.8594 31.0381,23.0869 30.9424,23.3193 C30.9424,23.3193 30.9082,23.4014 30.9082,23.4014 C30.8379,23.5723 30.7666,23.7461 30.7012,23.9199 C30.5029,24.4482 30.3193,25.1191 30.3086,25.7803 C30.3086,25.7803 30.3086,26.5436333 30.3086,28.0703 L24.3086,28.0703 C24.3086,26.5429667 24.3086,25.7793 24.3086,25.7793 C24.2988,25.4014 24.4004,25.084 24.5723,24.6289 C24.6445,24.4385 24.7236,24.249 24.8027,24.0605 C24.8027,24.0605 24.8057,24.0537 24.8057,24.0537 C24.998,23.5957 25.1904,23.1357 25.2773,22.6436 C25.2773,22.6436 25.8909333,22.6436 27.1182,22.6436 L24.3086,17.00781 L21.5,22.6436 C22.64,22.6436 23.21,22.6436 23.21,22.6436 C23.1318,22.8594 23.0381,23.0869 22.9424,23.3193 C22.9424,23.3193 22.9082,23.4014 22.9082,23.4014 C22.8379,23.5723 22.7666,23.7461 22.7012,23.9199 C22.5029,24.4482 22.3193,25.1191 22.3086,25.7803 C22.3086,25.7803 22.3086,26.5436333 22.3086,28.0703 L16.3096,28.0703 C16.3096,26.5429667 16.3096,25.7793 16.3096,25.7793 C16.2998,25.4014 16.4014,25.084 16.5732,24.6289 C16.6455,24.4385 16.7246,24.249 16.8037,24.0605 C16.8037,24.0605 16.8066,24.0537 16.8066,24.0537 C16.999,23.5957 17.1914,23.1357 17.2783,22.6436 C17.2783,22.6436 17.8919,22.6436 19.1191,22.6436 L16.3096,17.00781 L13.50098,22.6436 C14.6409533,22.6436 15.21094,22.6436 15.21094,22.6436 C15.13281,22.8594 15.03906,23.0869 14.94336,23.3193 C14.94336,23.3193 14.90918,23.4014 14.90918,23.4014 C14.83887,23.5723 14.76758,23.7461 14.70215,23.9199 C14.50391,24.4482 14.32031,25.1191 14.30957,25.7803 C14.30957,25.7803 14.30957,26.5436333 14.30957,28.0703 L8,28.0703 L8,10 Z" fill="#545454"></path>
        </g>
    </g>
</svg>
