<svg width="48px" height="48px" viewBox="0 0 48 48" version="1.1" xmlns="http://www.w3.org/2000/svg" xmlns:xlink="http://www.w3.org/1999/xlink">
    <g stroke="none" stroke-width="1" fill="none" fill-rule="evenodd">
        <g>
            <polygon points="0 0 48 0 48 48 0 48"></polygon>
            <g transform="translate(2.000000, 2.000000)">
                <polygon points="0 0 43.2 0 43.2 43.2 0 43.2"></polygon>
                <path d="M6.3,27.69993 C3.3,27.69993 1.8,27.69993 1.8,27.69993 C0.805887,27.69993 0,26.89398 0,25.89993 C0,25.89993 0,19.101267 0,19.101267 C0,18.107154 0.805887,17.301267 1.8,17.301267 C1.8,17.301267 3.300024,17.301267 6.300072,17.301267 C10.909644,13.266471 13.21443,11.249073 13.21443,11.249073 C14.37822,10.230408 16.2,11.056878 16.2,12.603501 C16.2,12.603501 16.2,32.39775 16.2,32.39775 C16.2,33.9444 14.37822,34.77087 13.21443,33.75225 C13.21443,33.75225 10.90962,31.73481 6.3,27.69993 Z" fill="#545454"></path>
                <path d="M20.890998,12.045735 C21.197133,11.654145 21.762756,11.584863 22.154346,11.890998 C25.102323,14.195637 27,17.787915 27,21.82293 C27,25.63218 25.308549,29.04741 22.638789,31.35645 C22.262841,31.68162 21.694482,31.64049 21.369321,31.26447 C21.04416,30.88854 21.085335,30.32019 21.461283,29.99502 C23.752557,28.01331 25.200027,25.08768 25.200027,21.82293 C25.200027,18.365229 23.576112,15.287274 21.045726,13.309083 C20.654136,13.002948 20.584854,12.437325 20.890989,12.045735 C20.890989,12.045735 20.890998,12.045735 20.890998,12.045735 Z" fill="#545454"></path>
                <path d="M27.27009,8.357184 C27.625113,8.009298 28.19493,8.015076 28.542816,8.37009 C32.041386,11.940345 34.2,16.83261 34.2,22.22721 C34.182342,27.31896 32.182695,32.10255 29.01411,35.58663 C28.678644,35.95338 28.109367,35.97876 27.74259,35.64333 C27.375813,35.30781 27.350424,34.73856 27.68589,34.37181 C30.666114,31.13307 32.417658,26.96418 32.4,22.22721 C32.4,17.32248 30.439422,12.877353 27.257184,9.62991 C26.909298,9.274896 26.915076,8.70507 27.27009,8.357184 Z" fill="#545454"></path>
                <path d="M34.729596,2.925117 C35.102331,2.596284 35.671068,2.63187 35.99991,3.004596 C40.428495,8.043525 43.179129,14.80338 43.195932,22.05 C43.180839,28.91529 40.711608,35.35272 36.692352,40.28067 C36.377505,40.66533 35.810469,40.72185 35.425845,40.40703 C35.041221,40.09221 34.984656,39.52512 35.299503,39.14055 C39.155274,34.44831 41.411025,28.58706 41.395923,22.05 C41.412717,15.14952 38.89863,8.991963 34.650108,4.195422 C34.321275,3.822687 34.356861,3.25395 34.729587,2.925117 C34.729587,2.925117 34.729596,2.925117 34.729596,2.925117 Z" fill-opacity="0.4" fill="#FFFFFF"></path>
            </g>
        </g>
    </g>
</svg>
