<svg width="48px" height="48px" viewBox="0 0 48 48" version="1.1" xmlns="http://www.w3.org/2000/svg" xmlns:xlink="http://www.w3.org/1999/xlink">
    <g stroke="none" stroke-width="1" fill="none" fill-rule="evenodd">
        <g transform="translate(-600.000000, -10.000000)">
            <g transform="translate(580.000000, 0.000000)">
                <g transform="translate(20.000000, 10.000000)">
                    <polygon points="0 0 48 0 48 48 0 48"></polygon>
                    <path d="M32,22 C33.1045,22 34,22.8955 34,24 C34,24 34,36 34,36 C34,37.1045 33.1045,38 32,38 C32,38 16,38 16,38 C14.89551,38 14,37.1045 14,36 C14,36 14,24 14,24 C14,22.8955 14.89551,22 16,22 C16,22 16,18 16,18 C16,13.58154 19.58203,10 24,10 C28.418,10 32,13.58154 32,18 C32,18 32,22 32,22 Z M19,22 L29,22 C29,19.3333333 29,18 29,18 C29,15.23877 26.7617,13 24,13 C21.23828,13 19,15.23877 19,18 C19,18 19,19.3333333 19,22 Z" fill="#000000"></path>
                </g>
            </g>
        </g>
    </g>
</svg>
