<?xml version="1.0" encoding="UTF-8"?>
<svg width="48px" height="48px" viewBox="0 0 48 48" version="1.1" xmlns="http://www.w3.org/2000/svg" xmlns:xlink="http://www.w3.org/1999/xlink">
    <title>tire pressure</title>
    <g id="GUI-Elements" stroke="none" stroke-width="1" fill="none" fill-rule="evenodd">
        <g id="Settings---Autopilot" transform="translate(-90.000000, -10.000000)">
            <g id="tire-pressure" transform="translate(90.000000, 10.000000)">
                <polygon id="Background" points="0 0 48 0 48 48 0 48"></polygon>
                <g id="Group" transform="translate(7.000000, 10.000000)" fill="#FFBD0A">
                    <g id="Vector-17">
                        <path d="M2,15 C2,19.3345212 4.61837015,23.2017282 6.31970496,25.0013929 L27.6803364,25.0013929 C29.3816461,23.2017282 32,19.3345212 32,15 L32,15 L36,15 C36,21.3865 31.8957,26.6159 29.8453,28.4799 C29.4772,28.8146 28.9975,29 28.5,29 L28.5,29 L5.5,29 L5.31444637,28.9913799 C4.884295,28.9513172 4.47678125,28.7727625 4.15465,28.4799 L4.15465,28.4799 L4.02660493,28.3615913 C1.93849656,26.4019732 -2,21.2561633 -2,15 L-2,15 Z M29.5,-2 C30.6046,-2 31.5,-1.10457 31.5,0 L31.5,0 L31.4999941,3.10943335 C31.5765994,3.22323231 31.6790059,3.36405909 31.8187,3.55544 C32.2328,4.12301 32.8472,4.94652 33.465,5.97101 C34.6557,7.9645 35.9592,11.0979 36,15 L36,15 L32,15 C32.0408,11.9021 31.0943,9.7855 30.035,8.02899 C29.5278,7.17848 29.0172,6.50199 28.5875,5.91331 C28.3706,5.61603 28.1438,5.29583 27.9784,5.02313 C27.8578,4.82214 27.5,4.23221 27.5,3.5 L27.5,3.5 L27.5,0 L27.5054856,-0.149262407 C27.5818322,-1.18412267 28.4456091,-2 29.5,-2 Z M2.50548573,-0.149262407 C2.58183483,-1.18412267 3.44563773,-2 4.5,-2 C5.60457,-2 6.5,-1.10457 6.5,0 L6.5,0 L6.5,3.5 L6.5,3.5 L6.49289056,3.67994559 C6.44201715,4.32783069 6.13217083,4.83888917 6.02163,5.02313 C5.85615,5.29583 5.62936,5.61603 5.41246,5.91331 C4.98283,6.50199 4.4722,7.17848 3.96499,8.02899 C2.90572,9.7855 1.95916,11.9021 2,15 L2,15 L-2,15 C-1.95916,11.0979 -0.65573,7.9645 0.53501,5.97101 C1.1528,4.94652 1.76717,4.12301 2.18129,3.55544 C2.32183536,3.36287407 2.42467228,3.22149026 2.50142114,3.10732255 L2.5,0 L2.5,0 Z" id="Vector-17-border"></path>
                    </g>
                    <g id="Vector-18" transform="translate(5.500000, 27.000000)">
                        <path d="M2,0 L2,4 L-2,4 L-2,0 L2,0 Z M25,0 L25,4 L21,4 L21,0 L25,0 Z M19.5,0 L19.5,4 L15.5,4 L15.5,0 L19.5,0 Z M7.5,0 L7.5,4 L3.5,4 L3.5,0 L7.5,0 Z M13.5,0 L13.5,4 L9.5,4 L9.5,0 L13.5,0 Z" id="Vector-18-border"></path>
                    </g>
                </g>
            </g>
        </g>
    </g>
</svg>