<svg width="48px" height="48px" viewBox="0 0 48 48" version="1.1" xmlns="http://www.w3.org/2000/svg" xmlns:xlink="http://www.w3.org/1999/xlink">
    <g id="GUI-Elements" stroke="none" stroke-width="1" fill="none" fill-rule="evenodd">
        <g id="Settings---Autopilot" transform="translate(-510.000000, -10.000000)">
            <g id="headlights" transform="translate(90.000000, 10.000000)">
                <g transform="translate(420.000000, 0.000000)">
                    <polygon id="Background" points="0 0 48 0 48 48 0 48"></polygon>
                    <g id="Vector-16" transform="translate(6.000000, 9.000000)" fill="#25CB55">
                        <path d="M9.53076555,21.2504287 C10.4322975,20.749707 11.582035,21.017455 12.1641,21.8906 C12.7768,22.8097 12.5285,24.0514 11.6094,24.6641 L11.6094,24.6641 L1.1094,31.6641 L1.05419918,31.5812988 C1.08976868,31.634653 1.1094,31.6641 1.1094,31.6641 C0.19034,32.2768 -1.0514,32.0285 -1.6641,31.1094 C-2.27681,30.1903 -2.02846,28.9486 -1.1094,28.3359 L-1.1094,28.3359 L9.3906,21.3359 Z M22.0713,-2 L22.1425,-1.99492 C24.8685,-1.8002 28.7471,-0.53157 31.9787,1.9844 C35.2688,4.546 38,8.50259 38,14 L38,14 L37.9949129,14.4094183 C37.8630907,19.6943581 35.1865475,23.51804 31.9787,26.0156 C28.7471,28.5316 24.8685,29.8002 22.1425,29.9949 C22.1425,29.9949 22.1398955,29.9584391 22.1351845,29.8924884 L22.1425,29.9949 L22.0713,30 L22,30 L21.7682251,29.9977572 C19.7604369,29.9584296 17.7852037,29.3901852 16.5009,27.3748 C15.3504,25.5696 15,22.9169 15,19.5 L15,19.5 L15,8.5 L15.0020241,8.05866068 C15.031982,4.8540541 15.4004217,2.35195043 16.5009,0.62518 C17.8346,-1.46773 19.9134,-2 22,-2 L22,-2 L22.0713,-2 Z M21.9302542,2.00026318 C20.5726166,2.01061405 20.1605521,2.32533698 19.8741,2.77482 C19.3996,3.51956 19,5.11688 19,8.5 L19,8.5 L19,19.5 L19.0014121,19.8436439 C19.0276477,22.9922449 19.4159621,24.5060828 19.8741,25.2252 C20.1654,25.6823 20.5866,26 22,26 L21.924495,26.0000175 C23.8693784,25.8439316 26.9492349,24.8619491 29.5213,22.8594 C32.0645,20.8793 34,18.0026 34,14 L34,14 L33.9943701,13.6280486 C33.8784378,9.8184894 31.985025,7.05879281 29.5213,5.1406 C26.9195,3.1149 23.7981,2.13353 21.8575,1.99492 Z M9.53076555,15.2504287 C10.4322975,14.749707 11.582035,15.017455 12.1641,15.8906 C12.7768,16.8097 12.5285,18.0514 11.6094,18.6641 L11.6094,18.6641 L1.1094,25.6641 L1.05419918,25.5812988 C1.08976868,25.634653 1.1094,25.6641 1.1094,25.6641 C0.19034,26.2768 -1.0514,26.0285 -1.6641,25.1094 C-2.27681,24.1903 -2.02846,22.9486 -1.1094,22.3359 L-1.1094,22.3359 L9.3906,15.3359 Z M1.1094,19.6641 L1.05419918,19.5812988 C1.08976868,19.634653 1.1094,19.6641 1.1094,19.6641 C0.19034,20.2768 -1.0514,20.0285 -1.6641,19.1094 C-2.27681,18.1903 -2.02846,16.9486 -1.1094,16.3359 L-1.1094,16.3359 L9.3906,9.3359 L9.53076555,9.25042766 C10.4322975,8.74970177 11.582035,9.017493 12.1641,9.8906 C12.7768,10.8097 12.5285,12.0514 11.6094,12.6641 L11.6094,12.6641 L1.1094,19.6641 Z M9.53076555,3.25042766 C10.4322975,2.74970178 11.582035,3.017493 12.1641,3.8906 C12.7768,4.80966 12.5285,6.0514 11.6094,6.6641 C11.6094,6.6641 11.5597519,6.58962781 11.475309,6.46296351 L11.400478,6.35071696 C11.4277155,6.39157319 11.4527535,6.42913024 11.475309,6.46296351 L11.6094,6.6641 L1.1094,13.6641 L1.05419918,13.5812988 C1.08976868,13.634653 1.1094,13.6641 1.1094,13.6641 C0.19034,14.2768 -1.0514,14.0285 -1.6641,13.1094 C-2.27681,12.1903 -2.02846,10.9486 -1.1094,10.3359 L-1.1094,10.3359 L9.3906,3.3359 Z" id="Vector-16-border"></path>
                    </g>
                </g>
            </g>
        </g>
    </g>
</svg>
