<svg width="48px" height="48px" viewBox="0 0 48 48" version="1.1" xmlns="http://www.w3.org/2000/svg" xmlns:xlink="http://www.w3.org/1999/xlink">
    <g stroke="none" stroke-width="1" fill="none" fill-rule="evenodd">
        <g transform="translate(-610.000000, -1115.000000)">
            <g transform="translate(0.000000, 1072.000000)">
                <g transform="translate(610.000000, 43.000000)">
                    <polygon points="0 0 48 0 48 48 0 48"></polygon>
                    <path d="M25.2439,34 C31.0817667,34 34.0007,34 34.0007,34 C36.2098,34 38.0007,35.7909 38.0007,38 C38.0007,38 38.0007,39 38.0007,39 C38.0007,41.2091 36.2098,43 34.0007,43 C34.0007,43 22.9002,43 22.9002,43 C21.0437,43 19.26319,42.2625 17.95044,40.9498 C17.95044,40.9497 17.95044,40.9497 17.95043,40.9497 C17.95043,40.9497 17.5787533,40.5780333 16.8354,39.8347 C16.8354,39.8347 16.8354,39.8347 16.8354,39.8347 C16.39845,39.3978 16.45843,38.673 16.96127,38.3139 C16.96127,38.3139 16.96127,38.3139 16.96127,38.3139 C19.7706233,36.3072333 21.1753,35.3039 21.1753,35.3039 C22.3625,34.4559 23.785,34 25.2439,34 C25.2439,34 25.2439,34 25.2439,34 Z M13.63807,6 C14.5064967,6 14.94071,6 14.94071,6 C15.29926,6 15.64312,6.14243 15.89665,6.39596 C15.89665,6.39596 15.89665,6.39596 15.89665,6.39596 C16.82438,7.32369 16.9522,8.78355 16.19982,9.85838 C16.19982,9.85839 16.19982,9.85839 16.19982,9.85839 C16.19982,9.85839 16.12171,9.96997333 15.96549,10.19314 C15.96549,10.19314 15.96549,10.19314 15.96549,10.19314 C14.76003,11.91522 14.62381,14.16836 15.61302,16.0231 C15.61302,16.0231 15.61302,16.0231 15.61302,16.0231 L19.25302,22.8481 C19.25302,22.8481 19.25302,22.8481 19.25302,22.8481 C20.9243,25.9819 20.5965,29.8054 18.41601,32.6089 C18.41601,32.6089 15.63894,36.1794 15.63894,36.1794 C15.38162,36.5102 14.85589,36.3967 14.75807,35.9891 C14.75807,35.9891 13.2334067,29.6363333 10.18408,16.9308 C10.18408,16.9308 10.18408,16.9308 10.18408,16.9308 C9.41976,13.74612 9.80375,10.39387 11.26843,7.46452 C11.26843,7.46452 11.26843,7.46452 11.26843,7.46452 C11.71721,6.56697 12.63457,6 13.63807,6 C13.63807,6 13.63807,6 13.63807,6 Z" fill="#545454"></path>
                </g>
            </g>
        </g>
    </g>
</svg>