<svg width="185px" height="184px" viewBox="0 0 185 184" version="1.1" xmlns="http://www.w3.org/2000/svg" xmlns:xlink="http://www.w3.org/1999/xlink">
    <g id="Page-1" stroke="none" stroke-width="1" fill="none" fill-rule="evenodd">
        <g id="Boot-Screen" transform="translate(-867.000000, -378.000000)" fill="#FFFFFF" fill-rule="nonzero">
            <g id="Logo" transform="translate(867.000000, 378.000000)">
                <path d="M92.3178847,183.827662 L118.145285,38.5729262 C142.763436,38.5729262 150.528546,41.2724414 151.649704,52.2910933 C151.649704,52.2910933 168.164213,46.1334615 176.493542,33.6274553 C143.990157,18.5660828 111.331703,17.8868359 111.331703,17.8868359 L92.2749312,41.0977155 L92.3178847,41.0948034 L73.2611133,17.8831957 C73.2611133,17.8831957 40.6019307,18.5631707 8.10291355,33.6245432 C16.4249625,46.1305494 32.9460243,52.2881812 32.9460243,52.2881812 C34.0737343,41.2688012 41.8293802,38.5692861 66.2822697,38.5518135 L92.3178847,183.827662 Z" id="Path"></path>
                <path d="M92.3076923,11.1824575 C118.582099,10.9815227 148.656067,15.2470187 179.44277,28.6652397 C183.557565,21.2590457 184.615385,17.9858472 184.615385,17.9858472 C150.960992,4.67100569 119.44408,0.114299859 92.3040522,-2.84217094e-15 C65.16548,0.114299859 33.650024,4.67173372 0,17.9858472 C0,17.9858472 1.50118668,22.0176473 5.1689745,28.6652397 C35.9498537,15.2470187 66.0289171,10.9815227 92.3040522,11.1824575 L92.3076923,11.1824575 Z" id="Path"></path>
            </g>
        </g>
    </g>
</svg>
